<svg id="svg" version="1.1" xmlns="http://www.w3.org/2000/svg" xmlns:xlink="http://www.w3.org/1999/xlink" width="400" height="400" viewBox="0, 0, 400,400"><g id="svgg"><path id="path0" d="M211.532 57.950 C 211.481 58.033,210.747 59.855,209.900 62.000 C 209.052 64.145,208.065 66.620,207.704 67.500 C 206.881 69.510,206.174 71.304,205.498 73.100 C 205.208 73.870,204.708 75.153,204.385 75.950 C 203.550 78.018,202.819 79.849,200.808 84.900 C 200.502 85.670,199.782 87.515,199.210 89.000 C 198.189 91.648,197.654 92.996,196.434 96.000 C 196.099 96.825,195.496 98.355,195.094 99.400 C 194.121 101.928,192.127 106.957,191.406 108.700 C 191.088 109.470,190.321 111.405,189.702 113.000 C 188.083 117.173,187.633 118.320,186.981 119.950 C 184.219 126.846,183.841 127.803,181.902 132.800 C 181.283 134.395,180.512 136.353,180.188 137.150 C 177.498 143.782,173.800 153.240,173.800 153.490 C 173.800 153.677,174.293 153.726,175.750 153.683 C 178.374 153.607,192.125 153.362,196.050 153.322 C 197.783 153.305,199.200 153.342,199.200 153.404 C 199.200 153.506,197.989 158.298,197.305 160.900 C 197.161 161.450,196.665 163.340,196.203 165.100 C 195.741 166.860,195.275 168.615,195.169 169.000 C 195.062 169.385,194.854 170.195,194.706 170.800 C 194.558 171.405,194.289 172.440,194.106 173.100 C 193.680 174.645,192.443 179.378,192.094 180.800 C 191.790 182.039,189.777 189.719,188.214 195.600 C 187.645 197.745,187.057 199.995,186.909 200.600 C 186.761 201.205,186.458 202.375,186.236 203.200 C 186.014 204.025,185.504 205.960,185.103 207.500 C 184.703 209.040,184.056 211.515,183.667 213.000 C 182.735 216.550,182.725 216.600,182.927 216.598 C 183.022 216.597,186.515 210.319,190.690 202.648 C 194.864 194.977,198.396 188.581,198.540 188.436 C 198.683 188.290,198.800 188.058,198.800 187.920 C 198.800 187.782,199.057 187.271,199.370 186.784 C 199.684 186.298,203.700 178.977,208.295 170.515 C 212.890 162.053,216.731 155.033,216.830 154.915 C 216.930 154.797,217.221 154.295,217.478 153.800 C 217.734 153.305,218.218 152.405,218.551 151.800 C 218.885 151.195,221.289 146.787,223.893 142.004 C 226.497 137.221,228.719 133.197,228.831 133.062 C 229.228 132.584,228.811 132.501,226.500 132.600 C 225.213 132.655,224.118 132.631,224.067 132.547 C 224.015 132.462,223.866 132.460,223.736 132.542 C 223.606 132.623,222.375 132.703,221.000 132.719 C 219.625 132.735,215.089 132.806,210.921 132.876 L 203.342 133.004 203.487 131.652 C 203.567 130.908,203.660 130.030,203.693 129.700 C 203.814 128.490,204.425 123.082,204.506 122.500 C 204.553 122.170,204.733 120.595,204.907 119.000 C 205.081 117.405,205.255 115.830,205.294 115.500 C 205.377 114.796,205.994 109.374,206.090 108.500 C 206.394 105.727,206.840 101.771,206.913 101.200 C 207.000 100.512,207.500 96.065,207.711 94.100 C 207.770 93.550,207.858 92.767,207.906 92.359 C 208.293 89.095,208.462 87.578,208.685 85.350 C 208.732 84.883,208.874 83.690,209.000 82.700 C 209.127 81.710,209.262 80.585,209.302 80.200 C 209.515 78.140,209.605 77.331,209.812 75.600 C 210.051 73.607,210.105 73.132,210.278 71.500 C 210.413 70.232,210.771 67.117,210.888 66.200 C 210.937 65.815,211.026 64.960,211.085 64.300 C 211.145 63.640,211.288 62.335,211.404 61.400 C 211.831 57.964,211.850 57.430,211.532 57.950 M34.400 251.691 C 34.400 264.040,34.314 263.600,36.714 263.600 L 37.610 263.600 37.555 252.782 L 37.500 241.964 37.028 241.582 C 36.694 241.312,36.241 241.200,35.478 241.200 L 34.400 241.200 34.400 251.691 M51.600 245.400 L 51.600 249.600 47.300 249.600 L 43.000 249.600 43.000 250.473 C 43.000 251.053,43.139 251.523,43.415 251.873 L 43.829 252.400 47.715 252.400 L 51.600 252.400 51.600 257.585 L 51.600 262.771 52.127 263.185 C 52.496 263.476,52.945 263.600,53.627 263.600 L 54.600 263.600 54.600 252.891 L 54.600 242.182 54.109 241.691 C 53.718 241.299,53.414 241.200,52.609 241.200 L 51.600 241.200 51.600 245.400 M77.269 241.486 C 76.893 241.652,76.437 242.117,76.144 242.632 C 75.329 244.065,65.600 263.261,65.600 263.437 C 65.600 263.527,66.345 263.600,67.255 263.600 L 68.909 263.600 73.705 254.212 C 76.342 249.048,78.555 244.886,78.622 244.962 C 78.690 245.038,80.517 248.588,82.684 252.850 L 86.624 260.600 81.556 260.600 L 76.488 260.600 75.745 262.100 L 75.003 263.600 83.202 263.600 C 89.631 263.600,91.399 263.546,91.393 263.350 C 91.389 263.213,88.880 258.195,85.817 252.200 L 80.247 241.300 79.074 241.253 C 78.402 241.227,77.630 241.326,77.269 241.486 M106.441 241.579 C 99.684 243.913,101.541 253.800,108.736 253.800 L 110.200 253.800 110.200 253.009 C 110.200 251.431,109.897 251.159,107.638 250.698 C 105.459 250.254,104.535 247.199,106.057 245.466 C 107.152 244.218,107.274 244.200,114.607 244.200 C 122.523 244.200,122.391 244.233,122.397 242.250 L 122.400 241.200 114.950 241.207 C 108.262 241.212,107.392 241.250,106.441 241.579 M139.100 241.480 C 132.028 243.716,133.692 253.800,141.133 253.800 L 142.651 253.800 142.555 252.798 C 142.431 251.511,142.043 251.104,140.679 250.830 C 137.644 250.221,136.589 247.160,138.725 245.163 C 139.715 244.237,140.040 244.200,147.086 244.200 C 154.942 244.200,154.800 244.235,154.800 242.285 L 154.800 241.200 147.350 241.213 C 141.930 241.223,139.682 241.296,139.100 241.480 M174.995 241.650 C 174.368 242.075,163.618 262.554,163.604 263.350 C 163.601 263.530,164.059 263.599,165.250 263.596 L 166.900 263.592 171.672 254.174 L 176.445 244.756 178.190 248.128 C 179.150 249.983,180.970 253.548,182.235 256.050 L 184.534 260.600 179.469 260.600 L 174.405 260.600 173.703 261.995 C 173.316 262.762,173.000 263.437,173.000 263.495 C 173.000 263.553,176.690 263.600,181.200 263.600 C 185.710 263.600,189.400 263.543,189.400 263.472 C 189.400 263.402,186.870 258.362,183.779 252.272 L 178.158 241.200 176.908 241.200 C 175.943 241.200,175.508 241.302,174.995 241.650 M200.200 247.500 L 200.200 253.800 201.262 253.800 C 203.097 253.800,203.085 253.828,203.200 249.316 L 203.300 245.400 210.009 254.450 L 216.718 263.500 218.559 263.558 L 220.400 263.615 220.400 252.408 L 220.400 241.200 219.322 241.200 C 218.559 241.200,218.106 241.312,217.772 241.582 L 217.300 241.964 217.200 250.591 L 217.100 259.218 210.409 250.209 L 203.717 241.200 201.959 241.200 L 200.200 241.200 200.200 247.500 M258.100 241.391 C 257.880 241.482,257.509 241.769,257.276 242.028 C 256.907 242.439,246.200 263.195,246.200 263.500 C 246.200 263.563,246.972 263.590,247.915 263.558 L 249.630 263.500 254.355 254.250 C 256.954 249.163,259.138 245.000,259.210 245.000 C 259.327 245.000,267.200 260.276,267.200 260.504 C 267.200 260.557,264.924 260.600,262.143 260.600 L 257.086 260.600 256.443 261.904 C 256.089 262.621,255.800 263.296,255.800 263.404 C 255.800 263.529,258.778 263.600,264.017 263.600 C 268.973 263.600,272.207 263.526,272.167 263.415 C 272.130 263.313,269.580 258.275,266.500 252.219 L 260.900 241.208 259.700 241.217 C 259.040 241.222,258.320 241.300,258.100 241.391 M282.800 242.010 C 282.800 244.170,282.837 244.182,289.705 244.248 L 295.110 244.300 296.423 244.947 C 302.557 247.968,302.800 256.414,296.845 259.553 C 295.110 260.467,294.067 260.600,288.621 260.600 C 282.869 260.600,283.003 260.555,282.840 262.521 L 282.748 263.635 288.924 263.554 C 294.576 263.480,295.210 263.437,296.400 263.044 C 304.464 260.381,306.875 250.455,300.906 244.497 C 298.007 241.603,296.499 241.200,288.568 241.200 L 282.800 241.200 282.800 242.010 M314.600 242.700 L 314.600 244.200 324.509 244.200 L 334.418 244.200 334.909 243.709 C 335.301 243.318,335.400 243.014,335.400 242.209 L 335.400 241.200 325.000 241.200 L 314.600 241.200 314.600 242.700 M347.000 247.815 C 347.000 256.069,347.287 257.251,349.973 260.075 C 352.523 262.755,354.439 263.423,359.950 263.552 L 364.000 263.646 364.000 262.561 C 364.000 260.724,363.989 260.719,359.867 260.579 C 355.285 260.425,354.538 260.176,352.481 258.119 C 350.180 255.818,350.130 255.617,350.004 248.132 L 349.900 241.964 349.428 241.582 C 349.107 241.322,348.642 241.200,347.978 241.200 L 347.000 241.200 347.000 247.815 M115.400 251.873 C 115.400 252.893,115.995 253.799,116.665 253.801 C 119.761 253.809,121.459 257.205,119.469 259.408 C 118.435 260.552,118.088 260.598,110.350 260.599 C 102.261 260.600,102.600 260.517,102.600 262.509 L 102.600 263.617 110.650 263.559 L 118.700 263.500 119.832 262.944 C 125.853 259.987,123.762 251.010,117.050 251.002 L 115.400 251.000 115.400 251.873 M147.800 251.962 C 147.800 253.206,148.246 253.702,149.534 253.893 C 152.792 254.374,153.841 257.975,151.290 259.922 L 150.532 260.500 143.073 260.600 C 134.536 260.714,134.999 260.608,134.843 262.490 L 134.750 263.600 142.365 263.600 C 150.729 263.600,151.489 263.522,152.953 262.513 C 158.098 258.969,155.675 251.009,149.450 251.002 L 147.800 251.000 147.800 251.962 M314.600 252.400 L 314.600 253.800 323.600 253.800 C 333.959 253.800,333.400 253.903,333.400 252.000 L 333.400 251.000 324.000 251.000 L 314.600 251.000 314.600 252.400 M314.600 262.100 L 314.600 263.600 325.100 263.600 L 335.600 263.600 335.600 262.500 C 335.600 260.466,336.370 260.600,324.700 260.600 L 314.600 260.600 314.600 262.100 M89.357 295.348 C 89.938 295.388,90.838 295.388,91.357 295.347 C 91.876 295.306,91.400 295.273,90.300 295.273 C 89.200 295.274,88.776 295.307,89.357 295.348 M309.157 295.348 C 309.738 295.388,310.638 295.388,311.157 295.347 C 311.676 295.306,311.200 295.273,310.100 295.273 C 309.000 295.274,308.576 295.307,309.157 295.348 M36.550 295.549 C 37.678 295.585,39.523 295.585,40.650 295.549 C 41.778 295.514,40.855 295.484,38.600 295.484 C 36.345 295.484,35.423 295.514,36.550 295.549 M359.750 295.549 C 360.878 295.585,362.723 295.585,363.850 295.549 C 364.978 295.514,364.055 295.484,361.800 295.484 C 359.545 295.484,358.623 295.514,359.750 295.549 M76.650 296.747 C 77.173 296.788,78.028 296.788,78.550 296.747 C 79.073 296.706,78.645 296.672,77.600 296.672 C 76.555 296.672,76.127 296.706,76.650 296.747 M322.056 296.747 C 322.582 296.789,323.392 296.788,323.856 296.746 C 324.320 296.704,323.890 296.670,322.900 296.671 C 321.910 296.672,321.530 296.706,322.056 296.747 M148.150 297.149 C 149.278 297.185,151.123 297.185,152.250 297.149 C 153.378 297.114,152.455 297.084,150.200 297.084 C 147.945 297.084,147.023 297.114,148.150 297.149 M248.261 297.149 C 249.449 297.185,251.339 297.185,252.461 297.149 C 253.582 297.113,252.610 297.084,250.300 297.085 C 247.990 297.085,247.072 297.114,248.261 297.149 " stroke="none" fill="#000000" fill-rule="evenodd"></path><path id="path1" d="M34.800 144.664 C 34.800 211.830,34.698 206.539,36.029 208.635 C 38.122 211.932,39.926 212.600,46.738 212.600 L 51.603 212.600 51.551 151.350 L 51.500 90.100 50.863 88.755 C 48.971 84.761,46.707 83.803,39.150 83.801 L 34.800 83.800 34.800 144.664 M134.000 108.000 L 134.000 132.200 109.300 132.200 L 84.600 132.200 84.600 136.263 C 84.600 143.237,85.610 145.598,89.386 147.457 L 90.691 148.100 112.346 148.153 L 134.000 148.207 134.000 176.761 C 134.000 201.923,134.037 205.458,134.310 206.508 C 134.930 208.888,136.427 210.696,138.710 211.820 L 140.090 212.500 145.445 212.565 L 150.800 212.629 150.800 151.646 C 150.800 83.315,150.937 89.734,149.429 87.542 C 147.306 84.456,145.372 83.803,138.350 83.801 L 134.000 83.800 134.000 108.000 M288.700 83.931 C 284.103 84.477,280.307 86.732,278.028 90.271 C 277.360 91.309,215.600 212.237,215.600 212.507 C 215.600 212.558,219.815 212.600,224.968 212.600 L 234.335 212.600 262.418 157.516 L 290.500 102.432 291.837 105.066 C 292.572 106.515,303.339 127.635,315.763 152.000 L 338.354 196.300 308.677 196.351 L 279.000 196.401 275.000 204.400 C 272.800 208.799,271.000 212.443,271.000 212.499 C 271.000 212.555,292.195 212.600,318.100 212.600 C 344.005 212.600,365.200 212.543,365.200 212.473 C 365.200 212.404,350.471 183.424,332.469 148.073 L 299.738 83.800 294.519 83.830 C 291.649 83.846,289.030 83.892,288.700 83.931 M199.648 290.450 C 199.527 290.697,199.153 291.495,198.817 292.223 C 198.134 293.700,198.177 293.679,195.200 293.972 C 193.368 294.152,193.383 294.518,195.290 296.200 C 196.677 297.422,197.319 298.600,196.600 298.600 C 196.490 298.600,196.400 299.090,196.400 299.688 C 196.400 300.287,196.310 300.832,196.200 300.900 C 196.090 300.968,196.000 301.198,196.000 301.412 C 196.000 301.824,197.448 302.007,197.685 301.625 C 197.744 301.528,198.345 301.167,199.020 300.822 C 200.377 300.127,200.179 300.099,202.238 301.268 C 203.551 302.012,204.499 302.004,204.304 301.250 C 204.226 300.947,204.117 300.250,204.062 299.700 C 204.008 299.150,203.881 298.615,203.782 298.510 C 203.384 298.094,203.663 297.624,205.096 296.291 C 207.073 294.453,207.097 294.089,205.250 293.926 C 202.628 293.694,202.200 293.589,202.200 293.179 C 202.200 292.971,202.110 292.800,202.000 292.800 C 201.890 292.800,201.800 292.620,201.800 292.400 C 201.800 292.180,201.710 292.000,201.600 292.000 C 201.490 292.000,201.400 291.820,201.400 291.600 C 201.400 291.380,201.310 291.200,201.200 291.200 C 201.090 291.200,201.000 291.059,201.000 290.886 C 201.000 290.060,199.996 289.737,199.648 290.450 M184.544 293.602 C 184.355 293.824,184.200 294.132,184.200 294.289 C 184.200 294.579,183.999 294.670,182.850 294.901 C 182.113 295.049,181.903 295.879,182.550 296.084 C 182.952 296.212,183.513 297.000,183.202 297.000 C 183.091 297.000,183.000 297.360,183.000 297.800 C 183.000 298.725,183.315 298.831,184.293 298.238 C 184.869 297.888,185.794 298.019,185.798 298.450 C 185.799 298.532,186.025 298.600,186.300 298.600 C 186.867 298.600,186.957 298.162,186.566 297.306 C 186.354 296.841,186.392 296.743,186.966 296.267 C 187.987 295.422,187.697 294.812,186.272 294.803 C 185.960 294.801,185.756 294.583,185.523 294.000 C 185.160 293.091,185.028 293.037,184.544 293.602 M215.200 293.600 C 215.200 293.820,215.110 294.000,215.000 294.000 C 214.890 294.000,214.800 294.180,214.800 294.400 C 214.800 294.702,214.666 294.801,214.250 294.803 C 212.716 294.810,212.425 295.289,213.400 296.200 C 214.008 296.768,214.164 297.275,213.800 297.500 C 213.411 297.740,213.570 298.600,214.003 298.600 C 214.424 298.600,215.208 298.227,215.429 297.922 C 215.500 297.824,215.829 297.936,216.160 298.172 C 217.186 298.902,217.467 298.765,217.354 297.592 C 217.269 296.709,217.316 296.538,217.729 296.213 C 218.500 295.606,218.349 295.053,217.357 294.857 C 216.662 294.719,216.445 294.559,216.122 293.945 C 215.698 293.140,215.200 292.954,215.200 293.600 M158.942 294.924 C 158.825 295.041,116.278 295.300,59.450 295.531 C 38.978 295.614,34.400 295.680,34.400 295.894 C 34.400 296.097,35.269 296.183,38.250 296.276 C 45.146 296.490,178.760 297.241,179.050 297.067 C 179.133 297.017,179.200 296.487,179.200 295.888 L 179.200 294.800 169.133 294.800 C 163.597 294.800,159.011 294.856,158.942 294.924 M221.200 295.851 C 221.200 297.327,220.630 297.248,230.300 297.116 C 234.920 297.053,251.660 296.956,267.500 296.900 C 336.496 296.656,366.487 296.361,366.343 295.928 C 366.287 295.760,359.731 295.665,341.483 295.566 C 291.343 295.294,246.168 295.005,233.850 294.876 L 221.200 294.745 221.200 295.851 " stroke="none" fill="#144c8c" fill-rule="evenodd"></path><path id="path2" d="" stroke="none" fill="#000000" fill-rule="evenodd"></path><path id="path3" d="M44.650 295.549 C 45.833 295.585,47.768 295.585,48.950 295.549 C 50.133 295.514,49.165 295.485,46.800 295.485 C 44.435 295.485,43.468 295.514,44.650 295.549 M351.450 295.549 C 352.632 295.585,354.568 295.585,355.750 295.549 C 356.933 295.514,355.965 295.485,353.600 295.485 C 351.235 295.485,350.268 295.514,351.450 295.549 M35.450 296.347 C 35.973 296.388,36.828 296.388,37.350 296.347 C 37.873 296.306,37.445 296.272,36.400 296.272 C 35.355 296.272,34.928 296.306,35.450 296.347 M363.250 296.347 C 363.773 296.388,364.628 296.388,365.150 296.347 C 365.673 296.306,365.245 296.272,364.200 296.272 C 363.155 296.272,362.728 296.306,363.250 296.347 M80.457 296.748 C 81.094 296.788,82.084 296.787,82.657 296.747 C 83.231 296.707,82.710 296.674,81.500 296.675 C 80.290 296.675,79.821 296.708,80.457 296.748 M84.857 296.748 C 85.494 296.788,86.484 296.787,87.057 296.747 C 87.631 296.707,87.110 296.674,85.900 296.675 C 84.690 296.675,84.221 296.708,84.857 296.748 M313.457 296.748 C 314.094 296.788,315.084 296.787,315.657 296.747 C 316.231 296.707,315.710 296.674,314.500 296.675 C 313.290 296.675,312.821 296.708,313.457 296.748 M318.057 296.748 C 318.694 296.788,319.684 296.787,320.257 296.747 C 320.831 296.707,320.310 296.674,319.100 296.675 C 317.890 296.675,317.421 296.708,318.057 296.748 M155.257 297.148 C 155.894 297.188,156.884 297.187,157.457 297.147 C 158.031 297.107,157.510 297.074,156.300 297.075 C 155.090 297.075,154.621 297.108,155.257 297.148 M167.457 297.148 C 168.094 297.188,169.084 297.187,169.657 297.147 C 170.231 297.107,169.710 297.074,168.500 297.075 C 167.290 297.075,166.821 297.108,167.457 297.148 M230.558 297.148 C 231.250 297.187,232.330 297.187,232.958 297.148 C 233.586 297.108,233.020 297.076,231.700 297.076 C 230.380 297.077,229.866 297.109,230.558 297.148 M243.057 297.148 C 243.694 297.188,244.684 297.187,245.257 297.147 C 245.831 297.107,245.310 297.074,244.100 297.075 C 242.890 297.075,242.421 297.108,243.057 297.148 " stroke="none" fill="#4ca8c4" fill-rule="evenodd"></path><path id="path4" d="M58.165 295.550 C 62.160 295.580,68.640 295.580,72.565 295.550 C 76.489 295.520,73.220 295.495,65.300 295.495 C 57.380 295.495,54.169 295.520,58.165 295.550 M327.965 295.550 C 331.960 295.580,338.440 295.580,342.365 295.550 C 346.289 295.520,343.020 295.495,335.100 295.495 C 327.180 295.495,323.969 295.520,327.965 295.550 M60.250 296.546 C 60.663 296.589,61.338 296.589,61.750 296.546 C 62.163 296.503,61.825 296.467,61.000 296.467 C 60.175 296.467,59.838 296.503,60.250 296.546 M338.755 296.547 C 339.226 296.589,339.946 296.588,340.355 296.545 C 340.765 296.502,340.380 296.468,339.500 296.469 C 338.620 296.469,338.285 296.504,338.755 296.547 M160.350 297.149 C 161.478 297.185,163.322 297.185,164.450 297.149 C 165.578 297.114,164.655 297.084,162.400 297.084 C 160.145 297.084,159.222 297.114,160.350 297.149 M235.950 297.149 C 237.078 297.185,238.923 297.185,240.050 297.149 C 241.178 297.114,240.255 297.084,238.000 297.084 C 235.745 297.084,234.822 297.114,235.950 297.149 " stroke="none" fill="#504cc4" fill-rule="evenodd"></path></g></svg>